<svg width="500" height="200" viewBox="0 0 500 200"
     xmlns="http://www.w3.org/2000/svg">

  <rect x="16" y="16" width="100" height="100" rx="9" ry="9" fill="#393186"/>
  
  <line y1="000" x1="29" y2="014" x2="29" stroke-width="1" stroke="grey"/>
  <line y1="000" x1="32" y2="014" x2="32" stroke-width="1" stroke="grey"/>
  <line y1="000" x1="35" y2="014" x2="35" stroke-width="1" stroke="grey"/>
  <line y1="000" x1="38" y2="014" x2="38" stroke-width="1" stroke="grey"/>
  <line y1="000" x1="41" y2="014" x2="41" stroke-width="1" stroke="grey"/>
  <line y1="000" x1="44" y2="014" x2="44" stroke-width="1" stroke="grey"/>
  <line y1="000" x1="47" y2="014" x2="47" stroke-width="1" stroke="grey"/>
  <line y1="000" x1="50" y2="014" x2="50" stroke-width="1" stroke="grey"/>
  <line y1="000" x1="53" y2="014" x2="53" stroke-width="1" stroke="grey"/>
  <line y1="000" x1="56" y2="014" x2="56" stroke-width="1" stroke="grey"/>
  <line y1="000" x1="59" y2="014" x2="59" stroke-width="1" stroke="grey"/>
  <line y1="000" x1="62" y2="014" x2="62" stroke-width="1" stroke="grey"/>
  <line y1="000" x1="65" y2="014" x2="65" stroke-width="1" stroke="grey"/>
  <line y1="000" x1="68" y2="014" x2="68" stroke-width="1" stroke="grey"/>
  <line y1="000" x1="71" y2="014" x2="71" stroke-width="1" stroke="grey"/>
  <line y1="000" x1="74" y2="014" x2="74" stroke-width="1" stroke="grey"/>
  <line y1="000" x1="77" y2="014" x2="77" stroke-width="1" stroke="grey"/>
  <line y1="000" x1="80" y2="014" x2="80" stroke-width="1" stroke="grey"/>
  <line y1="000" x1="83" y2="014" x2="83" stroke-width="1" stroke="grey"/>
  <line y1="000" x1="86" y2="014" x2="86" stroke-width="1" stroke="grey"/>
  <line y1="000" x1="89" y2="014" x2="89" stroke-width="1" stroke="grey"/>
  <line y1="000" x1="92" y2="014" x2="92" stroke-width="1" stroke="grey"/>
  <line y1="000" x1="95" y2="014" x2="95" stroke-width="1" stroke="grey"/>
  <line y1="000" x1="98" y2="014" x2="98" stroke-width="1" stroke="grey"/>
  <line y1="000" x1="101" y2="014" x2="101" stroke-width="1" stroke="grey"/>
  <line y1="000" x1="104" y2="014" x2="104" stroke-width="1" stroke="grey"/>

  <line x1="118" y1="29" x2="133" y2="29" stroke-width="1" stroke="grey"/>
  <line x1="118" y1="32" x2="133" y2="32" stroke-width="1" stroke="grey"/>
  <line x1="118" y1="35" x2="133" y2="35" stroke-width="1" stroke="grey"/>
  <line x1="118" y1="38" x2="133" y2="38" stroke-width="1" stroke="grey"/>
  <line x1="118" y1="41" x2="133" y2="41" stroke-width="1" stroke="grey"/>
  <line x1="118" y1="44" x2="133" y2="44" stroke-width="1" stroke="grey"/>
  <line x1="118" y1="47" x2="133" y2="47" stroke-width="1" stroke="grey"/>
  <line x1="118" y1="50" x2="133" y2="50" stroke-width="1" stroke="grey"/>
  <line x1="118" y1="53" x2="133" y2="53" stroke-width="1" stroke="grey"/>
  <line x1="118" y1="56" x2="133" y2="56" stroke-width="1" stroke="grey"/>
  <line x1="118" y1="59" x2="133" y2="59" stroke-width="1" stroke="grey"/>
  <line x1="118" y1="62" x2="133" y2="62" stroke-width="1" stroke="grey"/>
  <line x1="118" y1="65" x2="133" y2="65" stroke-width="1" stroke="grey"/>
  <line x1="118" y1="68" x2="133" y2="68" stroke-width="1" stroke="grey"/>
  <line x1="118" y1="71" x2="133" y2="71" stroke-width="1" stroke="grey"/>
  <line x1="118" y1="74" x2="133" y2="74" stroke-width="1" stroke="grey"/>
  <line x1="118" y1="77" x2="133" y2="77" stroke-width="1" stroke="grey"/>
  <line x1="118" y1="80" x2="133" y2="80" stroke-width="1" stroke="grey"/>
  <line x1="118" y1="83" x2="133" y2="83" stroke-width="1" stroke="grey"/>
  <line x1="118" y1="86" x2="133" y2="86" stroke-width="1" stroke="grey"/>
  <line x1="118" y1="89" x2="133" y2="89" stroke-width="1" stroke="grey"/>
  <line x1="118" y1="92" x2="133" y2="92" stroke-width="1" stroke="grey"/>
  <line x1="118" y1="95" x2="133" y2="95" stroke-width="1" stroke="grey"/>
  <line x1="118" y1="98" x2="133" y2="98" stroke-width="1" stroke="grey"/>
  <line x1="118" y1="101" x2="133" y2="101" stroke-width="1" stroke="grey"/>
  <line x1="118" y1="104" x2="133" y2="104" stroke-width="1" stroke="grey"/>
  
  <line y1="118" x1="29" y2="133" x2="29" stroke-width="1" stroke="grey"/>
  <line y1="118" x1="32" y2="133" x2="32" stroke-width="1" stroke="grey"/>
  <line y1="118" x1="35" y2="133" x2="35" stroke-width="1" stroke="grey"/>
  <line y1="118" x1="38" y2="133" x2="38" stroke-width="1" stroke="grey"/>
  <line y1="118" x1="41" y2="133" x2="41" stroke-width="1" stroke="grey"/>
  <line y1="118" x1="44" y2="133" x2="44" stroke-width="1" stroke="grey"/>
  <line y1="118" x1="47" y2="133" x2="47" stroke-width="1" stroke="grey"/>
  <line y1="118" x1="50" y2="133" x2="50" stroke-width="1" stroke="grey"/>
  <line y1="118" x1="53" y2="133" x2="53" stroke-width="1" stroke="grey"/>
  <line y1="118" x1="56" y2="133" x2="56" stroke-width="1" stroke="grey"/>
  <line y1="118" x1="59" y2="133" x2="59" stroke-width="1" stroke="grey"/>
  <line y1="118" x1="62" y2="133" x2="62" stroke-width="1" stroke="grey"/>
  <line y1="118" x1="65" y2="133" x2="65" stroke-width="1" stroke="grey"/>
  <line y1="118" x1="68" y2="133" x2="68" stroke-width="1" stroke="grey"/>
  <line y1="118" x1="71" y2="133" x2="71" stroke-width="1" stroke="grey"/>
  <line y1="118" x1="74" y2="133" x2="74" stroke-width="1" stroke="grey"/>
  <line y1="118" x1="77" y2="133" x2="77" stroke-width="1" stroke="grey"/>
  <line y1="118" x1="80" y2="133" x2="80" stroke-width="1" stroke="grey"/>
  <line y1="118" x1="83" y2="133" x2="83" stroke-width="1" stroke="grey"/>
  <line y1="118" x1="86" y2="133" x2="86" stroke-width="1" stroke="grey"/>
  <line y1="118" x1="89" y2="133" x2="89" stroke-width="1" stroke="grey"/>
  <line y1="118" x1="92" y2="133" x2="92" stroke-width="1" stroke="grey"/>
  <line y1="118" x1="95" y2="133" x2="95" stroke-width="1" stroke="grey"/>
  <line y1="118" x1="98" y2="133" x2="98" stroke-width="1" stroke="grey"/>
  <line y1="118" x1="101" y2="133" x2="101" stroke-width="1" stroke="grey"/>
  <line y1="118" x1="104" y2="133" x2="104" stroke-width="1" stroke="grey"/>
   
  <line x1="000" y1="29" x2="014" y2="29" stroke-width="1" stroke="grey"/>
  <line x1="000" y1="32" x2="014" y2="32" stroke-width="1" stroke="grey"/>
  <line x1="000" y1="35" x2="014" y2="35" stroke-width="1" stroke="grey"/>
  <line x1="000" y1="38" x2="014" y2="38" stroke-width="1" stroke="grey"/>
  <line x1="000" y1="41" x2="014" y2="41" stroke-width="1" stroke="grey"/>
  <line x1="000" y1="44" x2="014" y2="44" stroke-width="1" stroke="grey"/>
  <line x1="000" y1="47" x2="014" y2="47" stroke-width="1" stroke="grey"/>
  <line x1="000" y1="50" x2="014" y2="50" stroke-width="1" stroke="grey"/>
  <line x1="000" y1="53" x2="014" y2="53" stroke-width="1" stroke="grey"/>
  <line x1="000" y1="56" x2="014" y2="56" stroke-width="1" stroke="grey"/>
  <line x1="000" y1="59" x2="014" y2="59" stroke-width="1" stroke="grey"/>
  <line x1="000" y1="62" x2="014" y2="62" stroke-width="1" stroke="grey"/>
  <line x1="000" y1="65" x2="014" y2="65" stroke-width="1" stroke="grey"/>
  <line x1="000" y1="68" x2="014" y2="68" stroke-width="1" stroke="grey"/>
  <line x1="000" y1="71" x2="014" y2="71" stroke-width="1" stroke="grey"/>
  <line x1="000" y1="74" x2="014" y2="74" stroke-width="1" stroke="grey"/>
  <line x1="000" y1="77" x2="014" y2="77" stroke-width="1" stroke="grey"/>
  <line x1="000" y1="80" x2="014" y2="80" stroke-width="1" stroke="grey"/>
  <line x1="000" y1="83" x2="014" y2="83" stroke-width="1" stroke="grey"/>
  <line x1="000" y1="86" x2="014" y2="86" stroke-width="1" stroke="grey"/>
  <line x1="000" y1="89" x2="014" y2="89" stroke-width="1" stroke="grey"/>
  <line x1="000" y1="92" x2="014" y2="92" stroke-width="1" stroke="grey"/>
  <line x1="000" y1="95" x2="014" y2="95" stroke-width="1" stroke="grey"/>
  <line x1="000" y1="98" x2="014" y2="98" stroke-width="1" stroke="grey"/>
  <line x1="000" y1="101" x2="014" y2="101" stroke-width="1" stroke="grey"/>
  <line x1="000" y1="104" x2="014" y2="104" stroke-width="1" stroke="grey"/>
  
  <circle cx="26" cy="26" r="5" stroke="white" stroke-width="2" fill="#393186"/>
  
  <text x="28" y="86" font-family="Arial" font-size="50" stroke="white" stroke-width="3" fill="white">
    I
  </text>
  <text x="44" y="61" font-family="Arial" font-size="25" stroke="white" stroke-width="1" fill="white">
    2
  </text>
  <text x="61" y="86" font-family="Arial" font-size="50" stroke="white" stroke-width="3" fill="white">
    M
  </text>
  <text x="140" y="86" font-family="Calibri Black" font-size="55" stroke-width="1" font-weight="bold">
    IngenuityMicro
  </text>
</svg>
